<svg width="49" height="49" viewBox="0 0 49 49" fill="none" xmlns="http://www.w3.org/2000/svg">
<path d="M26 8.38012C28 6.94012 30.32 6.22012 32.94 6.22012C34.38 6.22012 35.96 6.60012 37.68 7.40012C39.4 8.18012 40.76 9.10012 41.76 10.1601C43.82 12.7201 44.68 15.7001 44.38 19.1001C44.06 22.5001 42.94 25.1601 41 27.0401L25.82 42.2201C25.44 42.6001 24.96 42.7801 24.4 42.7801C23.84 42.7801 23.38 42.6001 23 42.2201C22.8151 42.038 22.6698 41.8197 22.5735 41.5787C22.4771 41.3378 22.4316 41.0795 22.44 40.8201C22.44 40.2601 22.62 39.7801 23 39.4001L32.18 30.2201C32.68 29.7801 32.68 29.3201 32.18 28.8201C31.68 28.3201 31.22 28.3201 30.78 28.8201L21.6 38.0001C21.4149 38.1866 21.1931 38.3326 20.9487 38.429C20.7043 38.5254 20.4425 38.57 20.18 38.5601C19.62 38.5601 19.16 38.3801 18.78 38.0001C18.5951 37.818 18.4498 37.5997 18.3535 37.3587C18.2571 37.1178 18.2116 36.8595 18.22 36.6001C18.22 36.0401 18.4 35.5601 18.78 35.1801L27.96 26.0001C28.5 25.5001 28.5 25.0001 27.96 24.5001C27.5 24.0001 27.06 24.0001 26.56 24.5001L17.38 33.7801C17.1928 33.9637 16.9706 34.1078 16.7267 34.204C16.4828 34.3002 16.2221 34.3465 15.96 34.3401C15.4 34.3401 14.92 34.1601 14.5 33.7801C14.1 33.4001 13.9 32.9401 13.9 32.3801C13.9 31.8201 14.12 31.3201 14.56 30.8801L23.76 21.6801C24.26 21.1801 24.26 20.7201 23.76 20.2801C23.26 19.8401 22.78 19.8401 22.34 20.2801L13.06 29.5001C12.62 29.9001 12.16 30.1201 11.66 30.1201C11.1 30.1201 10.62 29.9201 10.26 29.5001C9.87997 29.1001 9.67997 28.6201 9.67997 28.0601C9.67997 27.5001 9.87997 27.0401 10.26 26.6601C16.38 20.5001 20.16 16.7801 21.6 15.4001L28.72 22.4401C29.5 23.1801 30.4 23.5601 31.5 23.5601C32.9 23.5601 34 23.0001 34.82 21.8801C35.38 21.0601 35.58 20.1601 35.42 19.1601C35.26 18.1601 34.84 17.3201 34.16 16.6201L26 8.38012ZM30.12 21.0401L21.6 12.5001L7.43997 26.6601C5.75997 24.9601 4.79997 22.3601 4.57997 18.8201C4.35997 15.3001 5.31997 12.2401 7.43997 9.68012C9.81997 7.32012 12.66 6.12012 15.96 6.12012C19.28 6.12012 22.1 7.32012 24.4 9.68012L32.94 18.2201C33.32 18.6001 33.5 19.0601 33.5 19.6201C33.5 20.1801 33.32 20.6601 32.94 21.0401C32.56 21.4001 32.1 21.6001 31.5 21.6001C30.96 21.6001 30.5 21.4001 30.12 21.0401Z" fill="#3D69D8"/>
</svg>
