<svg width="49" height="48" viewBox="0 0 49 48" fill="none" xmlns="http://www.w3.org/2000/svg">
<path d="M26.5 2V8.124C30.0248 8.56917 33.3013 10.1743 35.8135 12.6865C38.3257 15.1987 39.9308 18.4752 40.376 22H46.5V26H40.376C39.9308 29.5248 38.3257 32.8013 35.8135 35.3135C33.3013 37.8257 30.0248 39.4308 26.5 39.876V46H22.5V39.876C18.9752 39.4308 15.6987 37.8257 13.1865 35.3135C10.6743 32.8013 9.06917 29.5248 8.624 26H2.5V22H8.624C9.06917 18.4752 10.6743 15.1987 13.1865 12.6865C15.6987 10.1743 18.9752 8.56917 22.5 8.124V2H26.5ZM24.5 12C21.3174 12 18.2652 13.2643 16.0147 15.5147C13.7643 17.7652 12.5 20.8174 12.5 24C12.5 27.1826 13.7643 30.2348 16.0147 32.4853C18.2652 34.7357 21.3174 36 24.5 36C27.6826 36 30.7348 34.7357 32.9853 32.4853C35.2357 30.2348 36.5 27.1826 36.5 24C36.5 20.8174 35.2357 17.7652 32.9853 15.5147C30.7348 13.2643 27.6826 12 24.5 12ZM20.5 24C20.5 22.9391 20.9214 21.9217 21.6716 21.1716C22.4217 20.4214 23.4391 20 24.5 20C25.5609 20 26.5783 20.4214 27.3284 21.1716C28.0786 21.9217 28.5 22.9391 28.5 24C28.5 25.0609 28.0786 26.0783 27.3284 26.8284C26.5783 27.5786 25.5609 28 24.5 28C23.4391 28 22.4217 27.5786 21.6716 26.8284C20.9214 26.0783 20.5 25.0609 20.5 24Z" fill="#3D69D8"/>
</svg>
