<svg width="49" height="48" viewBox="0 0 49 48" fill="none" xmlns="http://www.w3.org/2000/svg">
<path d="M31.5 24C36.5 24 40.5 28 40.5 33C40.5 34.76 40 36.42 39.12 37.8L45.28 44L42.5 46.78L36.26 40.64C34.88 41.5 33.24 42 31.5 42C26.5 42 22.5 38 22.5 33C22.5 28 26.5 24 31.5 24ZM31.5 28C30.1739 28 28.9021 28.5268 27.9645 29.4645C27.0268 30.4021 26.5 31.6739 26.5 33C26.5 34.3261 27.0268 35.5979 27.9645 36.5355C28.9021 37.4732 30.1739 38 31.5 38C32.8261 38 34.0979 37.4732 35.0355 36.5355C35.9732 35.5979 36.5 34.3261 36.5 33C36.5 31.6739 35.9732 30.4021 35.0355 29.4645C34.0979 28.5268 32.8261 28 31.5 28ZM10.5 6H38.5C40.72 6 42.5 7.78 42.5 10V26.06C41.5 24.46 40.12 23.08 38.5 22V10H10.5V38H19.5C20.12 39.5 21.02 40.84 22.12 42H10.5C8.28 42 6.5 40.22 6.5 38V10C6.5 7.78 8.28 6 10.5 6ZM14.5 14H34.5V18H14.5V14ZM14.5 22H24.56C22.96 23 21.58 24.38 20.5 26H14.5V22ZM14.5 30H18.84C18.62 31 18.5 32 18.5 33V34H14.5V30Z" fill="#3D69D8"/>
</svg>
