<svg width="24" height="24" viewBox="0 0 24 24" fill="none" xmlns="http://www.w3.org/2000/svg">
<path fill-rule="evenodd" clip-rule="evenodd" d="M18.1355 4.10946C18.3568 4.01254 18.5991 3.97911 18.837 4.01266C19.0749 4.0462 19.2999 4.14549 19.4884 4.3002C19.677 4.4549 19.8222 4.65936 19.9091 4.8923C19.9959 5.12524 20.0212 5.37813 19.9822 5.62466L17.951 18.4443C17.754 19.6808 16.45 20.39 15.3601 19.774C14.4484 19.2587 13.0943 18.4648 11.8763 17.6363C11.2673 17.2217 9.40184 15.8938 9.63111 14.9488C9.82814 14.1409 12.9627 11.1049 14.7538 9.29992C15.4568 8.59077 15.1362 8.18169 14.306 8.83399C12.2444 10.4536 8.93435 12.9165 7.83996 13.6098C6.87452 14.2211 6.37121 14.3254 5.76938 14.2211C4.6714 14.031 3.65313 13.7365 2.82204 13.3777C1.69899 12.8932 1.75362 11.2866 2.82114 10.8188L18.1355 4.10946Z" fill="white"/>
</svg>
