<svg width="60" height="40" viewBox="0 0 60 40" fill="none" xmlns="http://www.w3.org/2000/svg">
<rect x="0.5" y="0.5" width="59" height="39" rx="3.5" fill="white"/>
<rect x="0.5" y="0.5" width="59" height="39" rx="3.5" stroke="#F5F5F5"/>
<path d="M38.0781 8.38281C44.6865 8.38302 50.0439 13.3828 50.0439 19.5498C50.0438 25.7167 44.6864 30.7156 38.0781 30.7158C35.1151 30.7158 32.4053 29.7086 30.3154 28.0439C28.2256 29.7084 25.5165 30.7158 22.5537 30.7158C15.9453 30.7158 10.5881 25.7168 10.5879 19.5498C10.5879 13.3827 15.9452 8.38286 22.5537 8.38281C25.5162 8.38281 28.2257 9.38955 30.3154 11.0537C32.4052 9.38936 35.1154 8.38281 38.0781 8.38281Z" fill="#ED0006"/>
<path d="M38.0762 8.38281C44.6848 8.38281 50.042 13.3826 50.042 19.5498C50.0418 25.7168 44.6847 30.7158 38.0762 30.7158C35.1139 30.7158 32.4051 29.7089 30.3154 28.0449C32.8873 25.9968 34.5204 22.9523 34.5205 19.5498C34.5205 16.1471 32.8875 13.1019 30.3154 11.0537C32.405 9.38978 35.1139 8.38286 38.0762 8.38281Z" fill="#F9A000"/>
<path d="M30.3145 11.0533C32.8867 13.1015 34.5195 16.1467 34.5195 19.5494C34.5195 22.952 32.8864 25.9964 30.3145 28.0446C27.7431 25.9964 26.1113 22.9515 26.1113 19.5494C26.1113 16.1471 27.7429 13.1015 30.3145 11.0533Z" fill="#FF5E00"/>
</svg>
