<svg width="60" height="40" viewBox="0 0 60 40" fill="none" xmlns="http://www.w3.org/2000/svg">
<rect x="0.5" y="0.5" width="59" height="39" rx="3.5" fill="white"/>
<rect x="0.5" y="0.5" width="59" height="39" rx="3.5" stroke="#F5F5F5"/>
<path d="M44.9022 16.1852L47.2938 23.7926H47.3358L49.7283 16.1852H51.7928L48.2254 26.0309C47.4112 28.286 46.4797 29.0299 44.4988 29.0299C44.3476 29.0299 43.8439 29.0131 43.7264 28.9801V27.4352C43.8523 27.4517 44.1636 27.4684 44.3231 27.4684C45.221 27.4683 45.7244 27.0968 46.035 26.1305L46.2195 25.5602L42.7781 16.1852H44.9022ZM17.4051 15.0446C17.8584 15.0776 19.1674 15.21 20.0067 16.4323C19.9376 16.4829 18.4537 17.3259 18.4705 19.0924C18.4874 21.2053 20.3483 21.9078 20.368 21.9254C20.3512 21.975 20.0742 22.9253 19.3944 23.9C18.7984 24.7591 18.1854 25.6013 17.2117 25.6178C16.2718 25.6343 15.9612 25.0651 14.8787 25.0651C13.8045 25.0651 13.4517 25.6012 12.5623 25.6344C11.6222 25.6674 10.9083 24.7259 10.3123 23.8668C9.09526 22.1321 8.16364 18.9765 9.42267 16.8453C10.0354 15.7798 11.1521 15.1109 12.3524 15.0944C13.2755 15.078 14.1231 15.6969 14.6854 15.6969C15.2393 15.6969 16.2384 14.9785 17.4051 15.0446ZM38.1541 16.0612C40.4791 16.0612 41.9901 17.2592 41.9901 19.1178V25.528H40.1102V23.983H40.0682C39.531 24.9908 38.3469 25.6266 37.0711 25.6266C35.1826 25.6265 33.8651 24.5198 33.8651 22.8512C33.8651 21.1992 35.1413 20.2494 37.4998 20.109L40.034 19.9606V19.2496C40.0339 18.2007 39.3376 17.6306 38.0955 17.6305C37.0716 17.6305 36.3248 18.1511 36.1736 18.944H34.3436C34.4024 17.2754 35.997 16.0612 38.1541 16.0612ZM29.0555 12.65C31.5901 12.6501 33.3609 14.3676 33.3611 16.8785C33.3611 19.3897 31.5565 21.1246 28.9881 21.1246H26.1766V25.528H24.1453V12.65H29.0555ZM37.7762 21.4479C36.5088 21.5222 35.8455 21.9929 35.8455 22.8024C35.8455 23.5871 36.5342 24.0992 37.617 24.0992C38.9935 24.0992 40.034 23.2398 40.034 22.0338V21.3073L37.7762 21.4479ZM26.1756 19.4479H28.5086C30.2796 19.4479 31.2869 18.5145 31.2869 16.8873C31.2869 15.26 30.2801 14.3346 28.5174 14.3346H26.1756V19.4479ZM17.4129 11.6666C17.4968 12.4927 17.1689 13.3019 16.6736 13.9049C16.17 14.4914 15.3642 14.9544 14.5584 14.8883C14.4577 14.0953 14.8526 13.2525 15.3143 12.7321C15.8179 12.1291 16.6995 11.6997 17.4129 11.6666Z" fill="#0C0C0C"/>
</svg>
