<svg width="60" height="40" viewBox="0 0 60 40" fill="none" xmlns="http://www.w3.org/2000/svg">
<rect x="0.5" y="0.5" width="59" height="39" rx="3.5" fill="white"/>
<rect x="0.5" y="0.5" width="59" height="39" rx="3.5" stroke="#F5F5F5"/>
<path fill-rule="evenodd" clip-rule="evenodd" d="M18.9711 26.4304H15.3363L12.6106 16.3206C12.4813 15.8556 12.2066 15.4444 11.8025 15.2507C10.7941 14.7637 9.68291 14.3762 8.4707 14.1807V13.7915H14.3261C15.1343 13.7915 15.7404 14.3762 15.8414 15.0552L17.2556 22.3477L20.8887 13.7915H24.4225L18.9711 26.4304ZM26.4434 26.4303H23.0106L25.8373 13.7913H29.2701L26.4434 26.4303ZM33.7108 17.2929C33.8118 16.6121 34.4179 16.2229 35.125 16.2229C36.2362 16.1252 37.4466 16.3206 38.4568 16.8059L39.0629 14.0847C38.0527 13.6955 36.9415 13.5 35.9331 13.5C32.6014 13.5 30.1769 15.2507 30.1769 17.6804C30.1769 19.5288 31.8942 20.4993 33.1064 21.084C34.4179 21.667 34.923 22.0563 34.822 22.6392C34.822 23.5137 33.8118 23.903 32.8034 23.903C31.5912 23.903 30.379 23.6115 29.2696 23.1245L28.6635 25.8474C29.8757 26.3327 31.1871 26.5281 32.3993 26.5281C36.1352 26.6242 38.4568 24.8752 38.4568 22.25C38.4568 18.9441 33.7108 18.7504 33.7108 17.2929ZM50.4702 26.4303L47.7445 13.7913H44.8168C44.2107 13.7913 43.6046 14.1806 43.4025 14.7636L38.3552 26.4303H41.8891L42.5944 24.5835H46.9364L47.3404 26.4303H50.4702ZM45.3229 17.1951L46.3313 21.9585H43.5046L45.3229 17.1951Z" fill="#172B85"/>
</svg>
