<svg width="150" height="340" viewBox="0 0 150 340" fill="none" xmlns="http://www.w3.org/2000/svg">
<circle cx="5" cy="5" r="5" fill="#3D69D8"/>
<circle cx="40" cy="5" r="5" fill="#3D69D8"/>
<circle cx="75" cy="5" r="5" fill="#3D69D8"/>
<circle cx="110" cy="5" r="5" fill="#3D69D8"/>
<circle cx="145" cy="5" r="5" fill="#3D69D8"/>
<circle cx="5" cy="27" r="5" fill="#3D69D8"/>
<circle cx="40" cy="27" r="5" fill="#3D69D8"/>
<circle cx="75" cy="27" r="5" fill="#3D69D8"/>
<circle cx="110" cy="27" r="5" fill="#3D69D8"/>
<circle cx="145" cy="27" r="5" fill="#3D69D8"/>
<circle cx="5" cy="49" r="5" fill="#3D69D8"/>
<circle cx="40" cy="49" r="5" fill="#3D69D8"/>
<circle cx="75" cy="49" r="5" fill="#3D69D8"/>
<circle cx="110" cy="49" r="5" fill="#3D69D8"/>
<circle cx="145" cy="49" r="5" fill="#3D69D8"/>
<circle cx="5" cy="71" r="5" fill="#3D69D8"/>
<circle cx="40" cy="71" r="5" fill="#3D69D8"/>
<circle cx="75" cy="71" r="5" fill="#3D69D8"/>
<circle cx="110" cy="71" r="5" fill="#3D69D8"/>
<circle cx="145" cy="71" r="5" fill="#3D69D8"/>
<circle cx="5" cy="93" r="5" fill="#3D69D8"/>
<circle cx="40" cy="93" r="5" fill="#3D69D8"/>
<circle cx="75" cy="93" r="5" fill="#3D69D8"/>
<circle cx="110" cy="93" r="5" fill="#3D69D8"/>
<circle cx="145" cy="93" r="5" fill="#3D69D8"/>
<circle cx="5" cy="115" r="5" fill="#3D69D8"/>
<circle cx="40" cy="115" r="5" fill="#3D69D8"/>
<circle cx="75" cy="115" r="5" fill="#3D69D8"/>
<circle cx="110" cy="115" r="5" fill="#3D69D8"/>
<circle cx="145" cy="115" r="5" fill="#3D69D8"/>
<circle cx="5" cy="137" r="5" fill="#3D69D8"/>
<circle cx="40" cy="137" r="5" fill="#3D69D8"/>
<circle cx="75" cy="137" r="5" fill="#3D69D8"/>
<circle cx="110" cy="137" r="5" fill="#3D69D8"/>
<circle cx="145" cy="137" r="5" fill="#3D69D8"/>
<circle cx="5" cy="159" r="5" fill="#3D69D8"/>
<circle cx="40" cy="159" r="5" fill="#3D69D8"/>
<circle cx="75" cy="159" r="5" fill="#3D69D8"/>
<circle cx="110" cy="159" r="5" fill="#3D69D8"/>
<circle cx="145" cy="159" r="5" fill="#3D69D8"/>
<circle cx="5" cy="181" r="5" fill="#3D69D8"/>
<circle cx="40" cy="181" r="5" fill="#3D69D8"/>
<circle cx="75" cy="181" r="5" fill="#3D69D8"/>
<circle cx="110" cy="181" r="5" fill="#3D69D8"/>
<circle cx="145" cy="181" r="5" fill="#3D69D8"/>
<circle cx="5" cy="203" r="5" fill="#3D69D8"/>
<circle cx="40" cy="203" r="5" fill="#3D69D8"/>
<circle cx="75" cy="203" r="5" fill="#3D69D8"/>
<circle cx="110" cy="203" r="5" fill="#3D69D8"/>
<circle cx="145" cy="203" r="5" fill="#3D69D8"/>
<circle cx="5" cy="225" r="5" fill="#3D69D8"/>
<circle cx="40" cy="225" r="5" fill="#3D69D8"/>
<circle cx="75" cy="225" r="5" fill="#3D69D8"/>
<circle cx="110" cy="225" r="5" fill="#3D69D8"/>
<circle cx="145" cy="225" r="5" fill="#3D69D8"/>
<circle cx="5" cy="247" r="5" fill="#3D69D8"/>
<circle cx="40" cy="247" r="5" fill="#3D69D8"/>
<circle cx="75" cy="247" r="5" fill="#3D69D8"/>
<circle cx="110" cy="247" r="5" fill="#3D69D8"/>
<circle cx="145" cy="247" r="5" fill="#3D69D8"/>
<circle cx="5" cy="269" r="5" fill="#3D69D8"/>
<circle cx="40" cy="269" r="5" fill="#3D69D8"/>
<circle cx="75" cy="269" r="5" fill="#3D69D8"/>
<circle cx="110" cy="269" r="5" fill="#3D69D8"/>
<circle cx="145" cy="269" r="5" fill="#3D69D8"/>
<circle cx="5" cy="291" r="5" fill="#3D69D8"/>
<circle cx="40" cy="291" r="5" fill="#3D69D8"/>
<circle cx="75" cy="291" r="5" fill="#3D69D8"/>
<circle cx="110" cy="291" r="5" fill="#3D69D8"/>
<circle cx="145" cy="291" r="5" fill="#3D69D8"/>
<circle cx="5" cy="313" r="5" fill="#3D69D8"/>
<circle cx="40" cy="313" r="5" fill="#3D69D8"/>
<circle cx="75" cy="313" r="5" fill="#3D69D8"/>
<circle cx="110" cy="313" r="5" fill="#3D69D8"/>
<circle cx="145" cy="313" r="5" fill="#3D69D8"/>
<circle cx="5" cy="335" r="5" fill="#3D69D8"/>
<circle cx="40" cy="335" r="5" fill="#3D69D8"/>
<circle cx="75" cy="335" r="5" fill="#3D69D8"/>
<circle cx="110" cy="335" r="5" fill="#3D69D8"/>
<circle cx="145" cy="335" r="5" fill="#3D69D8"/>
</svg>
