<svg width="340" height="105" viewBox="0 0 340 105" fill="none" xmlns="http://www.w3.org/2000/svg">
<circle cx="335" cy="5" r="5" transform="rotate(90 335 5)" fill="#F8B428"/>
<circle cx="335" cy="40" r="5" transform="rotate(90 335 40)" fill="#F8B428"/>
<circle cx="335" cy="75" r="5" transform="rotate(90 335 75)" fill="#F8B428"/>
<circle cx="313" cy="5" r="5" transform="rotate(90 313 5)" fill="#F8B428"/>
<circle cx="313" cy="40" r="5" transform="rotate(90 313 40)" fill="#F8B428"/>
<circle cx="313" cy="75" r="5" transform="rotate(90 313 75)" fill="#F8B428"/>
<circle cx="291" cy="5" r="5" transform="rotate(90 291 5)" fill="#F8B428"/>
<circle cx="291" cy="40" r="5" transform="rotate(90 291 40)" fill="#F8B428"/>
<circle cx="291" cy="75" r="5" transform="rotate(90 291 75)" fill="#F8B428"/>
<circle cx="269" cy="5" r="5" transform="rotate(90 269 5)" fill="#F8B428"/>
<circle cx="269" cy="40" r="5" transform="rotate(90 269 40)" fill="#F8B428"/>
<circle cx="269" cy="75" r="5" transform="rotate(90 269 75)" fill="#F8B428"/>
<circle cx="247" cy="5" r="5" transform="rotate(90 247 5)" fill="#F8B428"/>
<circle cx="247" cy="40" r="5" transform="rotate(90 247 40)" fill="#F8B428"/>
<circle cx="247" cy="75" r="5" transform="rotate(90 247 75)" fill="#F8B428"/>
<circle cx="225" cy="5" r="5" transform="rotate(90 225 5)" fill="#F8B428"/>
<circle cx="225" cy="40" r="5" transform="rotate(90 225 40)" fill="#F8B428"/>
<circle cx="225" cy="75" r="5" transform="rotate(90 225 75)" fill="#F8B428"/>
<circle cx="203" cy="5" r="5" transform="rotate(90 203 5)" fill="#F8B428"/>
<circle cx="203" cy="40" r="5" transform="rotate(90 203 40)" fill="#F8B428"/>
<circle cx="203" cy="75" r="5" transform="rotate(90 203 75)" fill="#F8B428"/>
<circle cx="181" cy="5" r="5" transform="rotate(90 181 5)" fill="#F8B428"/>
<circle cx="181" cy="40" r="5" transform="rotate(90 181 40)" fill="#F8B428"/>
<circle cx="181" cy="75" r="5" transform="rotate(90 181 75)" fill="#F8B428"/>
<circle cx="159" cy="5" r="5" transform="rotate(90 159 5)" fill="#F8B428"/>
<circle cx="159" cy="40" r="5" transform="rotate(90 159 40)" fill="#F8B428"/>
<circle cx="159" cy="75" r="5" transform="rotate(90 159 75)" fill="#F8B428"/>
<circle cx="137" cy="5" r="5" transform="rotate(90 137 5)" fill="#F8B428"/>
<circle cx="137" cy="40" r="5" transform="rotate(90 137 40)" fill="#F8B428"/>
<circle cx="137" cy="75" r="5" transform="rotate(90 137 75)" fill="#F8B428"/>
<circle cx="115" cy="5" r="5" transform="rotate(90 115 5)" fill="#F8B428"/>
<circle cx="115" cy="40" r="5" transform="rotate(90 115 40)" fill="#F8B428"/>
<circle cx="115" cy="75" r="5" transform="rotate(90 115 75)" fill="#F8B428"/>
<circle cx="93" cy="5" r="5" transform="rotate(90 93 5)" fill="#F8B428"/>
<circle cx="93" cy="40" r="5" transform="rotate(90 93 40)" fill="#F8B428"/>
<circle cx="93" cy="75" r="5" transform="rotate(90 93 75)" fill="#F8B428"/>
<circle cx="71" cy="5" r="5" transform="rotate(90 71 5)" fill="#F8B428"/>
<circle cx="71" cy="40" r="5" transform="rotate(90 71 40)" fill="#F8B428"/>
<circle cx="71" cy="75" r="5" transform="rotate(90 71 75)" fill="#F8B428"/>
<circle cx="49" cy="5" r="5" transform="rotate(90 49 5)" fill="#F8B428"/>
<circle cx="49" cy="40" r="5" transform="rotate(90 49 40)" fill="#F8B428"/>
<circle cx="49" cy="75" r="5" transform="rotate(90 49 75)" fill="#F8B428"/>
<circle cx="27" cy="5" r="5" transform="rotate(90 27 5)" fill="#F8B428"/>
<circle cx="27" cy="40" r="5" transform="rotate(90 27 40)" fill="#F8B428"/>
<circle cx="27" cy="75" r="5" transform="rotate(90 27 75)" fill="#F8B428"/>
<circle cx="5" cy="5" r="5" transform="rotate(90 5 5)" fill="#F8B428"/>
<circle cx="5" cy="40" r="5" transform="rotate(90 5 40)" fill="#F8B428"/>
<circle cx="5" cy="75" r="5" transform="rotate(90 5 75)" fill="#F8B428"/>
</svg>
